<svg>
<symbol id="burger"  xmlns="http://www.w3.org/2000/svg" viewBox="0 0 16 15" >
<path d="M0 1.86667C0 1.60734 0.105357 1.35864 0.292893 1.17527C0.48043 0.991905 0.734784 0.888889 1 0.888889H15C15.2652 0.888889 15.5196 0.991905 15.7071 1.17527C15.8946 1.35864 16 1.60734 16 1.86667C16 2.12599 15.8946 2.37469 15.7071 2.55806C15.5196 2.74143 15.2652 2.84444 15 2.84444H1C0.734784 2.84444 0.48043 2.74143 0.292893 2.55806C0.105357 2.37469 0 2.12599 0 1.86667ZM0 7.73333C0 7.47401 0.105357 7.22531 0.292893 7.04194C0.48043 6.85857 0.734784 6.75556 1 6.75556H15C15.2652 6.75556 15.5196 6.85857 15.7071 7.04194C15.8946 7.22531 16 7.47401 16 7.73333C16 7.99266 15.8946 8.24136 15.7071 8.42473C15.5196 8.6081 15.2652 8.71111 15 8.71111H1C0.734784 8.71111 0.48043 8.6081 0.292893 8.42473C0.105357 8.24136 0 7.99266 0 7.73333ZM1 12.6222C0.734784 12.6222 0.48043 12.7252 0.292893 12.9086C0.105357 13.092 0 13.3407 0 13.6C0 13.8593 0.105357 14.108 0.292893 14.2914C0.48043 14.4748 0.734784 14.5778 1 14.5778H15C15.2652 14.5778 15.5196 14.4748 15.7071 14.2914C15.8946 14.108 16 13.8593 16 13.6C16 13.3407 15.8946 13.092 15.7071 12.9086C15.5196 12.7252 15.2652 12.6222 15 12.6222H1Z" fill="black"/>
</symbol>

<symbol id="medal" xmlns="http://www.w3.org/2000/svg"  viewBox="0 0 75 75" fill="none">
<path  fill-rule="evenodd" clip-rule="evenodd" d="M45.775 4.08749C45.2014 3.8492 44.5567 3.84831 43.9825 4.08503C43.4083 4.32175 42.9515 4.77672 42.7125 5.34999L39.4625 13.1625C39.2489 13.7311 39.2644 14.3604 39.5057 14.9177C39.747 15.4751 40.1953 15.9171 40.756 16.1504C41.3168 16.3838 41.9462 16.3904 42.5117 16.1688C43.0772 15.9472 43.5346 15.5147 43.7875 14.9625L47.0375 7.14999C47.2758 6.57643 47.2767 5.93172 47.04 5.3575C46.8032 4.78328 46.3483 4.3265 45.775 4.08749ZM57.1969 4.10624C56.9152 3.98144 56.6116 3.9134 56.3036 3.90602C55.9956 3.89864 55.6892 3.95206 55.4018 4.06322C55.1145 4.17439 54.8519 4.34112 54.629 4.55387C54.4062 4.76663 54.2275 5.02123 54.1031 5.30312L43.325 29.7219C42.7069 29.5454 42.0813 29.3963 41.45 29.275L29.7187 5.22187C29.5837 4.94527 29.3956 4.69798 29.165 4.4941C28.9344 4.29023 28.6659 4.13377 28.3748 4.03366C28.0838 3.93354 27.7759 3.89174 27.4687 3.91063C27.1614 3.92952 26.861 4.00873 26.5844 4.14374C26.0258 4.41642 25.5983 4.89984 25.3962 5.48764C25.296 5.7787 25.2542 6.08662 25.2731 6.39383C25.292 6.70104 25.3712 7.00152 25.5062 7.27812L36.0812 28.9531C34.0786 29.0847 32.1053 29.5036 30.2219 30.1969L17.7219 5.20312C17.5912 4.91674 17.4043 4.6596 17.1721 4.44705C16.9399 4.23451 16.6673 4.0709 16.3705 3.96601C16.0738 3.86111 15.7589 3.81707 15.4447 3.83651C15.1306 3.85595 14.8235 3.93847 14.5419 4.07916C14.2604 4.21984 14.01 4.4158 13.8058 4.65535C13.6016 4.8949 13.4478 5.17313 13.3534 5.47343C13.2591 5.77373 13.2262 6.08996 13.2568 6.40324C13.2873 6.71653 13.3807 7.02045 13.5312 7.29687L26.0312 32.2969C22.1579 34.8079 19.2151 38.5201 17.6543 42.8643C16.0934 47.2085 16.0007 51.9447 17.3903 56.3466C18.7799 60.7486 21.575 64.5732 25.3471 67.2339C29.1192 69.8946 33.66 71.2445 38.273 71.0765C42.886 70.9086 47.3166 69.2321 50.8852 66.3042C54.4539 63.3762 56.9635 59.3585 58.0294 54.8671C59.0952 50.3758 58.6583 45.6589 56.7857 41.4397C54.9131 37.2205 51.7082 33.7321 47.6625 31.5094L58.3969 7.19687C58.6479 6.6283 58.6629 5.98329 58.4384 5.40371C58.214 4.82412 57.7685 4.35741 57.2 4.10624" fill="#FCFCFC"/>
</symbol>

<symbol id="maison" xmlns="http://www.w3.org/2000/svg"  viewBox="0 0 63 54" fill="none">
<path d="M25 53.125V34.375H37.5V53.125H53.125V28.125H62.5L31.25 0L0 28.125H9.375V53.125H25Z" fill="#FCFCFC"/>
</symbol>

<symbol id="chimie" xmlns="http://www.w3.org/2000/svg" viewBox="0 0 36 66" fill="none">
<path d="M33.9175 54.5675L25.7275 35.4404C24.9231 33.5684 24.265 30.3704 24.265 28.3327C24.265 26.2949 25.5154 24.6277 27.0437 24.6277C28.5721 24.6277 29.8225 23.3748 29.8225 21.8489C29.8225 20.3231 28.1552 19.0702 26.1175 19.0702H9.445C7.40725 19.0702 5.74 20.3182 5.74 21.8489C5.74 23.3797 6.99043 24.6277 8.51875 24.6277C10.0471 24.6277 11.2975 26.2949 11.2975 28.3327C11.2975 30.3704 10.6394 33.5684 9.835 35.4429L1.645 54.5724C0.840621 56.4444 0.182495 58.8136 0.182495 59.8301C0.182495 60.8465 1.01612 62.5186 2.035 63.5351C3.05387 64.5515 5.55474 65.3876 7.59249 65.3876H27.97C30.0053 65.3876 32.5037 64.5588 33.5275 63.5351C34.5512 62.5113 35.38 60.8489 35.38 59.8301C35.38 58.8112 34.7219 56.4419 33.9175 54.5724V54.5675ZM20.4211 13.5858C20.4211 14.2859 20.6992 14.9574 21.1942 15.4524C21.6893 15.9475 22.3607 16.2256 23.0609 16.2256C23.761 16.2256 24.4324 15.9475 24.9275 15.4524C25.4226 14.9574 25.7007 14.2859 25.7007 13.5858C25.7004 12.8857 25.4219 12.2144 24.9266 11.7195C24.4313 11.2247 23.7598 10.9469 23.0597 10.9472C22.3595 10.9475 21.6882 11.226 21.1934 11.7213C20.6985 12.2166 20.4207 12.8857 20.4211 13.5858ZM13.3157 13.9929C13.639 13.9929 13.949 13.8645 14.1775 13.6359C14.4061 13.4074 14.5345 13.0974 14.5345 12.7741C14.5345 12.4509 14.4061 12.1409 14.1775 11.9123C13.949 11.6838 13.639 11.5554 13.3157 11.5554C12.9925 11.5554 12.6825 11.6838 12.454 11.9123C12.2254 12.1409 12.097 12.4509 12.097 12.7741C12.097 13.0974 12.2254 13.4074 12.454 13.6359C12.6825 13.8645 12.9925 13.9929 13.3157 13.9929ZM17.9884 7.89913C18.5112 7.92509 19.0337 7.84451 19.5243 7.66228C20.0149 7.48005 20.4634 7.19997 20.8424 6.83907C21.2214 6.47817 21.5231 6.04398 21.7292 5.56288C21.9352 5.08178 22.0413 4.56381 22.0409 4.04044C22.0406 3.51708 21.9339 2.99925 21.7272 2.5184C21.5206 2.03756 21.2183 1.60375 20.8389 1.24333C20.4594 0.882914 20.0106 0.603407 19.5197 0.421797C19.0289 0.240186 18.5062 0.160262 17.9836 0.186883C17.0026 0.247964 16.0818 0.680874 15.409 1.39736C14.7361 2.11385 14.3619 3.05997 14.3625 4.04286C14.3631 5.02575 14.7386 5.9714 15.4123 6.68704C16.0861 7.40267 17.0074 7.83442 17.9884 7.89426V7.89913Z" fill="white"/>
</symbol>

<symbol id="bouclier" xmlns="http://www.w3.org/2000/svg"  viewBox="0 0 43 51" fill="none">
<path d="M39.3125 0.5625H3.68751C2.74268 0.5625 1.83654 0.937834 1.16845 1.60593C0.500347 2.27403 0.125013 3.18017 0.125013 4.125V27.2812C0.120849 30.8337 1.08433 34.3202 2.91202 37.3665C4.73971 40.4127 7.36257 42.9037 10.499 44.5718L21.5 50.4375L32.501 44.5718C35.6375 42.9037 38.2603 40.4127 40.088 37.3665C41.9157 34.3202 42.8792 30.8337 42.875 27.2812V4.125C42.875 3.18017 42.4997 2.27403 41.8316 1.60593C41.1635 0.937834 40.2573 0.5625 39.3125 0.5625ZM33.9688 29.0625H9.03126V25.5H33.9688V29.0625ZM33.9688 18.375H9.03126V14.8125H33.9688V18.375Z" fill="white"/>
</symbol>

<symbol id="tel" xmlns="http://www.w3.org/2000/svg"  viewBox="0 0 41 41" fill="none">
<path  d="M8.61917 17.8279C11.7992 24.0775 16.9225 29.1787 23.1721 32.3808L28.0304 27.5225C28.6267 26.9263 29.51 26.7275 30.2829 26.9925C32.7562 27.8096 35.4283 28.2512 38.1667 28.2512C39.3812 28.2512 40.375 29.245 40.375 30.4596V38.1667C40.375 39.3812 39.3812 40.375 38.1667 40.375C17.4304 40.375 0.625 23.5696 0.625 2.83333C0.625 1.61875 1.61875 0.625 2.83333 0.625H10.5625C11.7771 0.625 12.7708 1.61875 12.7708 2.83333C12.7708 5.59375 13.2125 8.24375 14.0296 10.7171C14.2725 11.49 14.0958 12.3512 13.4775 12.9696L8.61917 17.8279Z" fill="#DD1919"/>
</symbol>

<symbol id="gps" xmlns="http://www.w3.org/2000/svg" viewBox="0 0 51 51" fill="none">
<g clip-path="url(#clip0_27_122)">
<path d="M25.3641 0C17.1399 0 10.4 6.71978 10.4 14.9213C10.4 18.0992 11.415 21.0526 13.1327 23.48L23.5378 41.468C24.9949 43.3718 25.9637 43.0101 27.1753 41.3674L38.6523 21.8368C38.8837 21.4173 39.0657 20.9707 39.2242 20.5145C39.9522 18.7396 40.3267 16.8397 40.3267 14.9213C40.3272 6.71978 33.5893 0 25.3641 0ZM25.3641 6.99139C29.7933 6.99139 33.3152 10.5052 33.3152 14.9213C33.3152 19.3375 29.7933 22.8503 25.3641 22.8503C20.9354 22.8503 17.412 19.3385 17.412 14.9218C17.412 10.5052 20.9354 6.9919 25.3636 6.9919" fill="#DD1919"/>
<path d="M34.8765 24.5996L34.8523 24.663L34.8734 24.6051L34.8765 24.5996ZM32.3289 36.8954L31.6333 37.7555C32.5738 37.8692 33.4842 38.0025 34.3368 38.1639L31.5809 38.9802L35.2592 39.9585L38.0009 39.0939C39.6849 39.6588 42.0167 40.3494 42.7893 41.1345H37.2918L37.838 42.732H43.5428C43.5257 43.6323 41.9161 44.3636 40.379 44.9561L36.4804 44.1131L32.8072 45.4294L36.7304 46.3247C34.4399 46.9484 30.5941 47.3277 27.4102 47.5022L27.2765 45.6714H23.4508L23.3165 47.5022C20.1327 47.3277 16.2874 46.9489 13.9963 46.3252L17.9201 45.4294L14.2468 44.1131L10.3477 44.9561C8.83276 44.4959 7.20161 43.6323 7.1845 42.732H12.8898L13.436 41.1345H7.93847C8.71104 40.3494 11.0428 39.6588 12.7268 39.0939L15.4685 39.9585L19.1468 38.9802L16.391 38.1639C17.281 37.9996 18.1761 37.8642 19.0749 37.758L18.3893 36.8964C10.9528 37.6695 4.77222 39.3157 3.15163 41.9156C0.566824 46.0592 10.1023 50.2273 25.0468 50.2922C25.2691 50.3033 25.4884 50.2952 25.6956 50.2922C40.6315 50.2238 50.1584 46.0571 47.5756 41.9156C45.954 39.3147 39.7699 37.668 32.3289 36.8954Z" fill="#DD1919"/>
</g>
<defs>
<clipPath id="clip0_27_122">
<rect width="50.2978" height="50.2978" fill="white" transform="translate(0.214722)"/>
</clipPath>
</defs>
</symbol>

<symbol id="agenda" xmlns="http://www.w3.org/2000/svg" viewBox="0 0 56 55" fill="none">
<g clip-path="url(#clip0_32_126)">
<path d="M44.7949 3.4375H55.1074V51.5625H0.107361V3.4375H10.4199V0H13.8574V3.4375H41.3574V0H44.7949V3.4375ZM10.4199 6.875H3.54486V13.75H51.6699V6.875H44.7949V10.3125H41.3574V6.875H13.8574V10.3125H10.4199V6.875ZM3.54486 48.125H51.6699V17.1875H3.54486V48.125ZM10.4199 27.5V24.0625H44.7949V27.5H10.4199ZM10.4199 37.8125V34.375H44.7949V37.8125H10.4199Z" fill="#DD1919"/>
</g>
<defs>
<clipPath id="clip0_32_126">
<rect  fill="white" transform="translate(0.107361)"/>
</clipPath>
</defs>
</symbol>

    <symbol id="red_arrow" xmlns="http://www.w3.org/2000/svg" viewBox="0 0 36 37" fill="red">
        <path d="M19.8781 5.93196C20.3221 5.48805 20.9243 5.23868 21.5522 5.23868C22.18 5.23868 22.7822 5.48805 23.2262 5.93196L33.8816 16.5874C34.3255 17.0314 34.5749 17.6336 34.5749 18.2614C34.5749 18.8893 34.3255 19.4915 33.8816 19.9355L23.2262 30.5909C22.7796 31.0222 22.1815 31.2609 21.5607 31.2555C20.9398 31.2501 20.3459 31.0011 19.9069 30.5621C19.4679 30.123 19.2189 29.5292 19.2135 28.9083C19.2081 28.2875 19.4467 27.6893 19.8781 27.2427L26.2879 20.6293H3.79316C3.16516 20.6293 2.56289 20.3798 2.11882 19.9358C1.67476 19.4917 1.42529 18.8894 1.42529 18.2614C1.42529 17.6334 1.67476 17.0312 2.11882 16.5871C2.56289 16.143 3.16516 15.8936 3.79316 15.8936H26.2879L19.8781 9.28012C19.4342 8.83608 19.1848 8.23391 19.1848 7.60604C19.1848 6.97816 19.4342 6.376 19.8781 5.93196Z" fill="#DD1919"/>
    </symbol>


</svg>